<svg width="44" height="58" viewBox="0 0 44 58" fill="none" xmlns="http://www.w3.org/2000/svg">
<g filter="url(#filter0_g_1749_28)">
<path fill-rule="evenodd" clip-rule="evenodd" d="M22.2653 55.6289L1.59863 19.2616L22.2653 1.62891L41.5986 19.2616L22.2653 55.6289ZM14.5986 19.2616L22.2653 12.0983L29.932 19.2616L22.2653 26.4248L14.5986 19.2616Z" fill="#A8CDCF"/>
<path d="M20.3328 55.2333C19.9213 54.5883 19.4628 53.6969 19.1366 53.0068C19.0342 52.7906 19.163 52.8563 19.0954 52.7053C18.9632 52.41 18.781 52.1684 18.6558 51.8735C18.6146 51.7756 18.789 51.8275 18.7433 51.7263C18.4923 51.1718 18.1811 50.6892 17.901 50.1422C16.5217 47.4476 15.0941 44.8397 13.6315 42.1499C13.1492 41.263 12.6423 40.1398 12.0838 39.258C12.0185 39.1552 11.9582 39.2729 11.9388 39.2572C11.6381 39.0104 11.8918 39.0051 11.8004 38.7843C11.4372 37.9082 10.929 36.9932 10.4444 36.2268C10.2379 35.9009 10.2379 36.3453 10.1534 35.9471C10.1473 35.9196 10.2977 35.9466 10.2564 35.8485C10.1624 35.6262 9.91955 35.2413 9.83587 35.0752C9.67512 34.7548 9.64483 34.7039 9.47871 34.4089C9.25251 34.0051 9.03126 33.4977 8.76278 33.079C8.70517 32.9899 8.66987 33.1713 8.56855 33.0345C8.46717 32.8975 8.25489 32.5033 8.205 32.358C8.1551 32.2128 8.26909 32.2219 8.27474 32.188C8.32527 31.9065 7.84909 31.5816 7.81075 31.5268C7.11776 30.5235 6.72866 29.5465 6.16497 28.5555C5.73677 27.8032 5.23806 27.0221 4.83682 26.3028C4.3592 25.4456 4.00502 24.6904 3.52431 23.8672C3.4737 23.7802 3.40892 23.9526 3.34686 23.8466C2.68758 22.7197 2.06052 21.5851 1.50138 20.4078C1.44541 20.2897 1.63642 20.3744 1.58697 20.2527C1.49048 20.0176 1.38351 19.735 1.26006 19.454L1.09939 19.1852L1.34588 18.9653C1.89253 18.5886 2.41776 18.1375 2.42404 17.6459C2.84862 17.3114 3.36161 16.9024 3.79995 16.6717C4.0825 16.5229 3.94016 16.8223 4.19381 16.5299C4.25112 16.4641 4.0888 16.4468 4.18057 16.355C4.56699 15.9682 5.04495 15.6111 5.41533 15.2146C5.49049 15.1337 5.39878 15.0723 5.41 15.0376C5.50813 14.7503 6.005 14.6629 6.08917 14.6156C6.72818 14.2528 7.09365 13.8692 7.60724 13.4354C7.72647 13.3348 7.4936 13.346 7.605 13.2453C8.184 12.7244 8.80548 12.2103 9.4265 11.7636C9.56486 11.6645 9.5251 11.8582 9.59525 11.8156C9.90362 11.6265 9.81491 11.4005 10.1078 11.2158C10.1693 11.1767 10.2059 11.2822 10.2233 11.2824C10.4966 11.2849 10.468 10.9753 10.5047 10.9366C10.9654 10.4428 11.4639 10.3662 11.9327 9.91687C11.9886 9.86291 11.7701 9.87628 11.9325 9.73073C13.0137 8.76046 14.2056 7.79104 15.3676 6.93808C15.5481 6.80533 15.4909 6.98411 15.5095 6.98425C15.8075 6.98035 15.7547 6.68995 15.8039 6.63534C16.1964 6.20954 16.7439 6.02375 16.8438 5.53898C18.6026 4.16535 20.204 2.62168 22.0076 1.32681L22.2624 1.09949L22.5329 1.3355C22.672 1.48549 22.8092 1.63745 22.9442 1.79169C22.9648 1.81471 22.8394 1.8705 22.8808 1.91602C23.3782 2.46518 23.4052 2.22541 23.9268 2.37777C24.058 2.41629 24.14 2.88141 24.1502 2.91933C24.1868 3.05813 23.9684 3.11201 23.988 3.15037C24.155 3.46301 24.5315 2.96947 24.8646 3.27299C24.8743 3.28326 24.7539 3.32746 24.7742 3.3613C24.8371 3.46673 24.9536 3.51184 25.0122 3.61826C25.1455 3.86259 25.0123 4.14775 25.4272 4.28942C25.48 4.30693 25.659 3.99542 25.9451 4.2788C26.059 4.39198 26.5876 4.86599 26.7193 5.01687C26.8509 5.16758 26.6739 5.15913 26.6811 5.1723C26.976 5.64359 26.7842 5.55252 26.8334 5.89681C26.883 6.24046 27.1824 5.80186 27.3027 5.8322C27.4231 5.86279 27.6301 6.21847 27.6725 6.31517C27.7148 6.41184 27.5776 6.38386 27.6246 6.45956C27.9378 6.95986 27.9848 6.43492 28.1795 6.4995C28.639 6.65115 28.6304 7.17106 28.9034 7.47177C28.9773 7.55312 28.9712 7.42735 29.0488 7.48686C29.3552 7.72344 29.4447 7.96971 29.8442 8.1831C29.9095 8.21806 30.3297 8.284 30.3835 8.56591C30.3908 8.60616 30.257 8.61565 30.3639 8.74256C30.5234 8.93222 30.8361 9.24619 31.0531 9.40015C31.2134 9.51377 31.1561 9.24489 31.3039 9.447C31.3695 9.5369 31.1571 9.4699 31.2856 9.63303C31.4134 9.79541 31.8012 10.1435 31.9499 10.2748C32.0983 10.4057 32.1001 10.243 32.1175 10.2477C32.2206 10.2783 32.5407 10.491 32.5654 10.5138C33.8265 11.6438 34.8422 12.8473 36.1059 13.9081C36.205 13.9915 36.2276 13.8388 36.2436 13.8506C36.607 14.1094 36.1196 14.1256 36.2714 14.4184C36.4135 14.1962 36.5167 14.354 36.7664 14.5432C36.8869 14.6342 36.8942 14.5047 36.9113 14.5063C37.179 14.5436 37.1607 14.7941 37.163 14.8509C37.172 15.0602 37.409 15.0388 37.4163 15.1798C37.4241 15.3203 37.1549 15.2725 37.3772 15.4728C37.5019 15.4606 37.5016 15.1313 37.696 15.2552C38.4298 15.7227 39.4834 16.9418 39.9792 17.4209C40.4741 17.899 40.6498 18.036 40.9232 18.3309C41.4172 18.8637 41.3427 18.5516 41.7304 18.7935C41.821 18.8501 41.8654 18.9032 41.8801 18.9529L42.1174 19.16L41.9675 19.4576C41.8209 19.5452 41.6303 19.311 41.5424 19.3205C41.4283 19.3319 41.4824 19.4393 41.3989 19.4846C41.3156 19.5296 41.3385 19.3484 41.234 19.503C41.1296 19.6576 41.0411 20.1854 41.0984 20.2903C41.2197 20.5123 41.5229 20.4145 41.2235 20.8116C41.2062 20.8344 41.1462 20.6986 41.085 20.7886C40.6024 21.505 40.1786 22.2904 39.7057 23.0107C39.6405 23.1096 39.5754 22.9555 39.5361 23.0124C39.1271 23.6049 39.4404 23.4819 39.4711 23.9422C39.2267 23.7126 38.9501 23.811 38.6937 24.2894C38.5394 24.5769 38.6906 24.5936 38.6795 24.8267C38.6763 24.8967 38.4822 25.055 38.5213 25.1231C38.6484 25.3469 38.9652 25.2691 38.617 25.7177C38.6014 25.7372 38.5331 25.6124 38.4869 25.6839C38.1879 26.146 38.3578 26.3106 38.1038 26.8469C37.9048 27.2673 37.3946 27.9318 37.1264 28.3884C36.8103 28.2078 36.6493 28.6881 36.7757 28.9848C36.6054 29.2831 36.4439 29.6172 36.2575 29.894C36.1935 29.9892 36.1357 29.8735 36.1189 29.8809C35.8576 29.9921 36.003 30.2385 35.9767 30.3084C35.6818 31.0612 35.2113 31.5522 35.0111 32.3139C35.0041 32.341 35.2065 32.4985 34.9474 32.5928C34.9299 32.5986 34.9472 32.3211 34.7701 32.6353C34.593 32.9495 34.1542 33.4862 34.0226 33.9833C33.9906 34.1035 34.028 34.4704 33.771 34.6123C33.7364 34.631 33.6892 34.5653 33.6314 34.5882C33.4461 34.6629 33.6325 34.8565 33.3565 34.9133C33.0805 34.9701 32.7616 35.2239 32.6567 35.7401C32.653 35.7563 32.7757 35.9569 32.6983 36.0956C32.5747 36.3169 32.3685 36.6148 32.2455 36.8492C32.1866 36.9614 32.3357 36.9488 32.3274 36.9693C31.9896 37.7547 31.606 38.2376 31.1346 39.0207C31.048 39.1642 30.9736 39.6692 30.7019 39.8916C30.4039 40.1361 30.0305 39.5236 29.7766 40.3145C29.6737 40.6333 30.1691 41.3695 29.5327 41.7023C29.082 42.7644 28.3997 43.6054 27.9855 44.6905C27.9668 44.7392 28.0828 44.9865 28.023 45.0927C27.9338 45.2501 27.797 45.2899 27.7304 45.4008C27.4492 45.8642 27.2939 46.3425 27.0369 46.7969C26.9396 46.9695 26.8789 46.8588 26.7627 47.0647C26.6467 47.2705 26.6956 47.4748 26.4861 47.7258C26.3275 47.9152 25.963 47.9951 25.7832 48.2628C26.025 48.4052 25.9165 48.5971 25.798 48.9776C25.7754 49.0508 25.8995 49.0253 25.8932 49.0623C25.8696 49.2139 25.7352 49.2944 25.719 49.4416C25.7149 49.4773 25.7987 49.5236 25.8001 49.5554C25.8154 49.827 25.4452 50.0644 25.3812 50.105C25.137 50.2609 25.1916 50.4235 25.0512 50.5681C24.911 50.7124 24.9847 50.4244 24.8487 50.6077C24.5669 50.9878 24.2984 51.5259 24.0715 51.9434C23.9814 52.1103 24.155 52.0561 24.1447 52.0813C23.9893 52.4427 23.6832 52.729 23.8059 53.0405C23.0971 52.9715 23.7513 53.2792 23.3719 53.7122C23.3418 53.7462 23.0405 53.6496 23.0797 53.4785C23.119 53.3074 23.3255 53.1262 23.373 52.8851C23.3844 52.8281 23.2765 52.4095 23.2813 52.3628C23.3194 51.997 23.7529 52.1727 23.7839 52.1687C24.1234 52.1176 24.0289 51.6259 24.0579 51.525C24.1905 51.0637 24.4355 50.7421 24.5571 50.362C24.6372 50.1136 24.3799 49.9484 24.4828 49.7746C24.8248 49.197 25.31 49.1899 25.2812 48.459C25.2754 48.3024 24.9181 48.265 25.3772 47.9592C25.4061 47.9401 25.7869 47.7343 25.7508 47.4792C25.7462 47.4472 25.6601 47.4023 25.6691 47.3681C25.731 47.1392 25.8717 47.0394 25.9572 46.7996C26.0427 46.5599 26.1361 46.2666 26.3001 46.0282C26.3988 45.8845 26.6628 45.7731 26.7409 45.7206C26.9634 45.5737 26.8967 45.2538 27.1011 45.1982C27.3069 45.1419 27.3808 45.5051 27.6494 45.2134C27.4334 45.0825 27.2202 44.9321 27.007 44.7929C27.4095 44.0547 27.8698 43.3624 28.256 42.6123C28.3036 42.5192 28.1337 42.55 28.1817 42.4485C28.3848 42.0207 28.664 41.7013 28.8603 41.2501C29.0118 40.9005 29.0805 40.4655 29.235 40.0979C29.6036 40.0192 29.7937 39.453 30.0179 39.0874C30.0963 38.9593 30.1597 39.0043 30.2319 38.922C30.5029 38.6104 30.1892 38.6572 30.2055 38.541C30.2764 38.0428 30.8051 38.278 31.0543 37.7787C31.0677 37.7524 30.9656 37.289 30.972 37.236C31.0101 36.8982 31.0912 37.2401 31.2041 37.0761C31.4104 36.7766 31.5931 36.5894 31.7125 36.1729C31.7469 36.0512 31.7167 35.6995 31.9604 35.5572C31.9923 35.5384 32.0739 35.6015 32.0911 35.5819C32.3947 35.2223 32.1182 35.0617 32.1461 34.7788C32.1739 34.4958 32.5593 34.2409 32.6542 34.1977C32.9009 34.084 32.6385 34.377 32.6473 34.3949C32.7523 34.6065 32.8621 34.3295 32.9827 34.1373C33.2747 34.2554 33.4067 33.9672 33.1065 33.9375C33.0735 33.9347 33.0167 34.1039 32.9827 34.1373C32.8045 33.8176 32.933 33.4921 33.3669 33.2877C33.5702 33.1922 33.629 33.4159 33.8347 32.9067C33.9282 32.6757 33.6927 32.659 33.7435 32.4382C33.8596 31.9339 34.3421 31.455 34.556 30.9851C34.6336 30.8146 34.4438 30.92 34.4933 30.8016C34.6242 30.4871 34.8428 30.2645 34.9626 29.9425C34.9733 29.9132 34.8288 29.9218 34.8771 29.8275C35.2414 29.1117 35.6395 28.5315 36.035 27.7923C36.226 27.4351 36.5058 26.7636 36.7149 26.3995C37.0766 25.7681 37.6553 25.0624 37.9084 24.4933C38.0739 24.1224 37.923 24.1429 37.9301 23.95C37.9432 23.5775 38.4799 23.1911 38.5574 23.1419C38.5599 23.1404 38.4219 23.462 38.5653 23.3275C38.7328 23.294 38.556 23.1456 38.5574 23.1419C38.6078 23.1093 38.9596 22.5074 39.0037 22.3742C39.0275 22.3017 38.9044 22.2839 38.9188 22.2471C39.2634 21.3755 39.6751 20.5376 40.1669 19.7292C40.1768 19.7156 40.2808 19.7992 40.3026 19.7665C40.5411 19.414 40.6087 19.104 40.6863 18.7765L40.9023 20.025C40.8153 19.9793 40.727 19.9324 40.6371 19.8796C40.2398 19.646 39.997 19.3814 39.9514 19.0353C39.6808 18.8269 39.3871 18.4244 39.2202 18.1905C39.0533 17.9567 38.8525 18.1187 38.8308 18.1058C38.1524 17.7055 37.9215 17.2973 37.3458 16.7415C37.0724 16.4769 36.4901 15.9959 36.1671 15.7391C35.9116 15.5364 35.807 15.3601 35.5597 15.1863C35.5263 15.1628 35.48 15.2743 35.4679 15.2692C35.1291 15.1441 35.435 15.0473 35.4174 14.9641C35.3538 14.6621 35.3042 14.4868 34.9304 14.2608C34.8443 14.2085 34.3622 14.3098 34.2133 14.2057C34.0202 14.0698 34.1821 14.0235 33.9775 13.8838C33.9601 13.8718 33.9037 13.94 33.7945 13.8351C33.2867 13.3491 32.7553 12.7948 32.2098 12.3093C32.1355 12.2427 32.1355 12.4325 32.0266 12.338C31.5157 11.8945 30.9715 11.3912 30.529 10.8988C30.4203 10.7772 30.5616 10.7732 30.5553 10.7279C30.5144 10.452 30.1153 10.4348 30.0746 10.4043C29.1004 9.68243 28.5745 8.88894 27.5917 8.14202C27.5379 8.10171 26.9721 7.95754 26.9611 7.62858C26.96 7.60639 26.9544 7.27505 26.6948 7.26134C26.6786 7.26054 26.6997 7.44772 26.5255 7.27174C26.3513 7.09579 26.0014 6.88885 25.8422 6.55906C25.7916 6.45481 25.7657 6.10575 25.3994 6.03108C25.3749 6.02687 24.7167 6.01318 24.7876 5.67304C24.7995 5.61735 25.035 5.40376 24.6426 5.26547C24.5673 5.23939 24.6179 5.38108 24.4457 5.2837C24.1816 5.13479 23.9495 4.80837 23.5862 4.66777C23.5225 4.64353 23.1786 4.62053 23.1286 4.35433C23.1208 4.31264 23.2396 4.27795 23.1631 4.19224C22.8 3.78433 22.3322 3.45329 21.974 3.02765C21.847 2.87705 22.0358 2.81815 21.9162 2.64713C21.8541 2.55824 21.7503 2.4321 21.6356 2.31937L22.8718 2.33982C22.7552 2.43208 22.6488 2.53513 22.5953 2.63008C22.4838 2.82781 22.8376 2.88377 22.6089 3.10758C21.6143 4.08047 20.4647 4.85147 19.3951 5.7333C19.2364 5.86408 19.4293 5.82756 19.2001 6.02559C18.3551 6.75604 16.9474 8.07711 16.0758 8.54869C15.3775 8.92659 16.039 8.19632 15.5438 8.53014C15.305 8.69151 15.2748 9.13333 15.2287 9.18578C14.7807 9.70105 14.3327 9.899 13.8982 10.3262C13.8085 10.4145 13.9854 10.4321 13.9082 10.5062C13.6451 10.7599 13.3162 10.9652 13.0578 11.1995C12.942 11.3048 13.0275 11.3606 12.9131 11.4483C12.6401 11.6589 12.3817 11.8252 12.0668 11.9733C12.038 11.9868 12.1159 11.7601 11.9191 11.9221C11.6009 12.1844 11.1527 12.4477 10.8525 12.8268C10.7637 12.9396 10.9048 13.1135 10.5743 13.1922C10.505 13.2089 10.3921 12.9518 10.2748 13.3573C10.2547 13.4251 10.0077 14.0478 9.65552 14.0828C9.5627 14.0921 9.27106 14.0517 9.16473 14.1879C9.15085 14.207 9.29886 14.2388 9.19977 14.3387C8.84916 14.6895 8.44669 15.016 8.08478 15.3743C7.98829 15.4701 8.22273 15.4337 8.07634 15.5735C7.67389 15.9583 7.12538 16.3846 6.68659 16.7078C6.52466 16.8267 6.56313 16.6584 6.54475 16.6593C6.24793 16.6727 6.30232 16.9501 6.25244 17.0115C5.94003 17.3911 5.58455 17.5423 5.26501 17.8552C5.17662 17.9413 5.31926 17.974 5.30741 17.9978C5.18045 18.2407 5.18761 17.9573 5.05012 18.0441C4.66449 18.2865 4.28837 18.6199 3.95134 18.9271C3.82766 19.0401 4.0592 19.0216 3.94718 19.1218C3.48685 19.536 3.00206 19.9479 2.51079 20.3307L2.82048 18.5672C2.9442 18.8094 3.06226 19.0517 3.17275 19.2923C3.24099 19.4415 3.09902 19.4039 3.09503 19.4453C3.06533 19.7322 3.43402 19.9184 3.49207 19.9765C3.75633 20.2403 3.74479 20.4077 3.9169 20.6755C4.75905 21.9831 5.65297 23.6804 6.3442 24.9736C7.24548 26.6584 7.89106 27.9963 8.81353 29.5672C8.87204 29.6671 8.93565 29.4967 8.98764 29.5819C9.65347 30.6855 10.2328 31.8153 10.9057 32.9178C10.9607 33.0084 11.0002 32.8103 11.0923 32.9535C11.2822 33.2468 11.4942 33.6345 11.6317 33.9619C11.699 34.1215 11.4864 33.977 11.5561 34.1365C11.7183 34.508 11.9236 34.8884 12.1466 35.2379C12.2418 35.3866 12.228 35.0886 12.3426 35.2869C13.1251 36.6368 13.9024 37.9575 14.5291 39.4149C14.5721 39.5148 14.38 39.733 14.5393 39.9068C14.6142 39.8842 14.6918 39.839 14.7664 39.8053C15.9268 41.7583 16.9546 43.76 18.0672 45.7475C18.1141 45.8313 18.1587 45.615 18.2502 45.7769C18.78 46.7135 19.3314 47.6021 19.7493 48.6305C19.791 48.7325 19.5405 48.8104 19.7332 49.071C19.7674 49.1169 20.0366 49.5214 20.1469 49.6029C20.1626 49.6136 20.2229 49.4776 20.3031 49.6117C20.7673 50.3919 21.2136 51.2324 21.5977 52.0563C21.6595 52.1893 21.4719 52.1169 21.5149 52.2122C21.8212 52.888 22.3024 53.5389 22.5507 54.2098C22.7165 54.6592 22.4387 54.6158 22.3743 54.9412C22.3653 54.9872 22.5057 55.244 22.4035 55.3195C22.1471 55.5099 21.7752 55.5582 21.5102 55.7757C21.4529 55.8223 21.7147 56.1244 21.4472 56.0095C21.4289 56.0012 21.2378 55.783 21.1513 55.7517C21.0914 55.7297 21.0233 55.8694 20.9282 55.8091C20.8333 55.7487 20.8727 55.6006 20.7374 55.488C20.6014 55.3758 20.5103 55.5108 20.3328 55.2333ZM38.4674 17.1389C38.3577 16.8731 38.027 17.1787 38.3072 17.289C38.3211 17.2939 38.4732 17.1523 38.4674 17.1389ZM28.1664 43.5255C28.5008 43.3181 28.3531 42.976 28.1056 43.1161C27.8582 43.2562 28.0648 43.5888 28.1664 43.5255ZM26.6386 46.7071C26.963 46.4294 26.4306 46.0755 26.3443 46.5118C26.3391 46.5371 26.6197 46.7234 26.6386 46.7071ZM21.7453 53.9592C21.7419 53.9653 21.8408 54.151 21.8484 54.1525C22.0276 54.1795 21.8298 53.8081 21.7453 53.9592ZM25.1349 49.8709C25.2691 49.8018 25.3491 49.4397 25.1822 49.5256C25.0479 49.5947 24.9678 49.9571 25.1349 49.8709ZM28.7639 7.64094C28.7654 7.63323 28.658 7.52716 28.6348 7.55713C28.5603 7.65396 28.7386 7.77 28.7639 7.64094ZM22.3494 55.1261C22.7831 54.3614 23.4972 54.1376 22.9956 54.9548C22.9048 55.1027 23.023 54.5463 22.8776 54.7188C22.6119 55.0347 22.7775 55.4262 22.4281 55.7069C22.3645 55.7575 22.3237 55.1692 22.3495 55.1244C22.3495 55.1249 22.3495 55.1255 22.3494 55.1261ZM38.7198 16.6398C38.72 16.6319 38.5695 16.487 38.5618 16.488C38.3823 16.5171 38.6854 16.8089 38.7198 16.6398ZM22.4488 1.5059C22.4488 1.5026 22.4358 1.48747 22.4146 1.46517L22.2637 1.33347L22.1215 1.46032C22.0179 1.53654 21.7721 1.7385 21.7685 1.75393C21.7392 1.99723 22.1177 1.75335 22.2205 1.57643L22.2648 1.53695L22.3118 1.57794C22.3876 1.61013 22.4471 1.59936 22.4488 1.5059ZM37.1139 28.3912C37.1335 28.6596 37.0204 28.9081 36.7763 28.984C36.891 28.7886 36.9992 28.588 37.1139 28.3912ZM22.9869 13.4561C22.8417 13.6452 22.5879 13.8252 22.3775 13.9432C22.3117 13.9803 22.2846 13.8969 22.2368 13.9199C22.1432 13.965 22.1024 14.0565 22.0056 14.0965C21.9733 14.1095 21.9168 13.9898 21.8849 14.0055C21.7106 14.0922 21.6036 14.2362 21.4472 14.3456C20.6768 14.8846 19.976 15.4748 19.2483 16.0761C19.0084 16.2745 18.6544 16.4488 18.4541 16.7044C18.4307 16.7344 18.5225 16.7999 18.5235 16.8114C18.5371 16.9897 18.4119 16.8012 18.3383 16.8294C18.0467 16.9416 17.8044 17.1541 17.6298 17.3756C17.5557 17.4701 17.7925 17.5493 17.6211 17.5408C17.6094 17.5404 17.5512 17.4341 17.5189 17.4471C17.4458 17.4769 17.3578 17.5878 17.3097 17.62C17.2166 17.6817 17.204 17.695 17.127 17.7652C17.0209 17.8604 16.8573 17.9334 16.7637 18.0572C16.744 18.0839 16.8577 18.1423 16.8337 18.1928C16.8096 18.2433 16.702 18.3299 16.6487 18.3409C16.5953 18.3519 16.5452 18.2693 16.5244 18.2591C16.35 18.1715 16.4066 18.4655 16.3959 18.4841C16.1956 18.8174 15.8628 18.9308 15.6066 19.1707C15.414 19.3515 15.2396 19.5786 15.0517 19.7465V18.7766C15.0532 18.7781 15.0547 18.7795 15.0562 18.781C15.2712 18.9932 15.4138 19.2156 15.6358 19.4078C15.6592 19.4281 15.7292 19.3 15.7579 19.3247C16.0628 19.587 16.3438 19.8706 16.5709 20.2136C16.5936 20.2481 16.471 20.3035 16.4886 20.3434C16.5983 20.5856 16.7146 21.0299 17.1904 20.7342C17.2974 20.8631 17.43 21.0169 17.4642 21.1981C17.4864 21.3148 17.3259 21.3501 17.4514 21.3883C17.4796 21.3971 17.5353 21.2869 17.5715 21.3065C17.7237 21.3894 17.8313 21.5426 17.9943 21.6112C18.0277 21.6249 18.0935 21.541 18.1135 21.5336C18.278 21.4753 18.201 21.7537 18.2096 21.7872C18.2772 22.0402 18.433 22.1111 18.5818 22.2548C18.6164 22.2882 18.6723 22.1452 18.709 22.1736C18.898 22.3223 19.0711 22.5007 19.1993 22.7072C19.2276 22.7534 19.1096 22.8094 19.1188 22.836C19.1607 22.9522 19.3352 22.8012 19.3785 22.9094C19.3878 22.932 19.3076 22.9995 19.3028 23.0106C19.2267 23.185 19.4405 23.037 19.4563 23.044C19.6595 23.129 19.5749 23.413 19.7463 23.5218C19.767 23.5346 19.8175 23.4017 19.8702 23.4436C20.2217 23.7222 20.5424 24.0714 20.7939 24.4504C20.8331 24.5092 20.7297 24.5479 20.7245 24.5598C20.6461 24.7471 20.8537 24.5918 20.8766 24.6001C21.0531 24.6704 21.0278 24.9396 21.3232 24.7996C21.7049 25.2721 22.2063 25.6131 22.5741 26.0943H21.9565C22.0809 26.012 22.2132 25.9383 22.3573 25.8774C22.3663 25.8732 22.4398 25.9766 22.4575 25.968C22.6715 25.8645 22.5063 25.7516 22.453 25.4745C22.4397 25.4048 22.7207 25.5369 22.7426 25.5454C22.8229 25.577 22.9224 25.7399 22.9418 25.7425C23.0978 25.7588 22.6634 25.3185 22.7646 25.2236C22.7685 25.2214 22.8329 25.317 22.8491 25.3173C22.8998 25.3186 22.8951 25.2611 22.9478 25.2655C23.0688 25.2765 23.295 25.4763 23.2661 25.2641C23.262 25.2368 23.0051 24.9968 23.1069 24.9244C23.1477 24.8957 23.3033 24.7421 23.3635 24.7169C23.4237 24.6917 23.4702 24.803 23.4767 24.8036C23.6992 24.8003 23.6958 24.8882 23.9072 24.9935C24.1181 25.0982 23.7424 24.7297 23.7269 24.6638C23.7116 24.598 23.8841 24.6056 23.9351 24.6167C23.9861 24.6277 24.008 24.7055 24.0439 24.7052C24.28 24.7016 23.9219 24.4621 23.907 24.3617C23.8715 24.1245 24.215 24.3371 24.3321 24.2801C24.3637 24.2646 24.283 24.2185 24.2992 24.192C24.3644 24.0877 24.4996 24.1278 24.5222 23.9541C24.5259 23.9257 24.4457 23.6798 24.6148 23.7573C24.6391 23.7686 24.6846 23.859 24.7365 23.8403C24.814 23.8126 24.9281 23.7351 24.9653 23.6558C24.9928 23.5973 24.8332 23.5273 24.9223 23.5121C24.962 23.5054 24.9805 23.6163 25.0497 23.598C25.1187 23.5799 25.2331 23.4674 25.2755 23.4234C25.3178 23.3794 25.2105 23.3134 25.2085 23.3041C25.1983 23.2495 25.2437 23.1269 25.2514 23.1199C25.6221 22.7532 26.113 22.5747 26.4376 22.1787C26.4632 22.1478 26.3564 22.0723 26.3594 22.0667C26.4223 21.9344 26.5763 22.2566 26.7237 22.2748C26.5362 22.0943 26.6094 22.0903 26.6601 22.0039C26.6844 21.9621 26.5973 21.9058 26.5933 21.8954C26.5391 21.7369 26.7088 21.8485 26.7454 21.8696C26.88 21.9471 26.7963 21.7851 26.8867 21.8365C26.9766 21.8875 27.0244 22.0428 27.0904 21.9785C27.0457 21.8929 26.8298 21.762 26.854 21.6854C26.945 21.3964 27.4351 21.1996 27.6036 21.0692C27.7718 20.9392 27.8101 20.8799 27.9232 20.8203C28.1275 20.7126 27.9447 20.6365 27.9894 20.4817C28.0345 20.3267 28.2882 20.697 28.3679 20.7531C28.4473 20.8094 28.3959 20.7231 28.4495 20.7448C28.503 20.7665 28.5089 20.8498 28.564 20.8252C28.6192 20.8005 28.6175 20.5699 28.5642 20.4832C28.4512 20.2995 28.2483 20.1855 28.412 20.1393C28.4215 20.1367 28.4806 20.2412 28.5129 20.2271C28.7675 20.1122 28.972 19.9288 29.2192 19.8065C29.2534 19.7898 29.3183 19.9069 29.3391 19.8982C29.5567 19.8086 29.3497 19.7024 29.2719 19.4424C29.473 19.6973 29.6569 19.7964 29.7803 19.6838C29.8545 19.6161 29.7454 19.5247 29.7249 19.4075C29.7186 19.3723 29.8368 19.3947 29.8008 19.3373C29.6835 19.1496 29.4687 19.0177 29.6603 18.9708V19.5523C29.6603 19.5523 29.6602 19.5522 29.6602 19.5521C29.6594 19.5491 29.6711 19.5384 29.686 19.5248V18.9983C29.7026 19.0191 29.7237 19.0458 29.7401 19.0562V19.4669C29.7438 19.4601 29.745 19.4543 29.7424 19.45C29.6513 19.3003 29.4814 19.4526 29.3293 19.3482C29.21 19.2663 29.1188 18.9914 29.0152 18.8638C29.2661 18.6003 29.0968 18.5561 28.88 18.6968C28.8098 18.6172 28.7167 18.5496 28.6657 18.4545C28.6481 18.4219 28.7369 18.3607 28.7414 18.3494C28.8137 18.1725 28.6135 18.3194 28.5903 18.3109C28.3461 18.21 28.3252 17.9374 28.0294 17.9084C28.0189 17.9074 27.8364 18.0828 27.9163 17.9049C27.922 17.8928 28.0574 17.862 27.9824 17.7798C27.9074 17.6975 27.847 17.4556 27.6544 17.436C27.6079 17.4311 27.3989 17.5166 27.453 17.3478C27.4605 17.325 27.5181 17.2796 27.535 17.2402C27.5883 17.1141 27.3952 17.2832 27.5029 17.0869C27.6106 16.8906 27.6375 16.6933 27.4217 16.6966C27.4151 16.6964 27.25 16.8192 27.2165 16.7835C27.1631 16.7263 27.111 16.6199 27.0505 16.5652C27.0216 16.5391 26.954 16.648 26.9474 16.6451C26.7077 16.5175 26.6478 16.3082 26.4757 16.0808C26.4444 16.039 26.2192 16.0632 26.2388 15.8961C26.2601 15.7129 26.7637 15.3387 26.4794 15.2744C26.3651 15.248 25.7366 15.7325 25.8803 15.3115C25.5532 15.1434 25.4559 14.7684 25.0987 14.631C25.0827 14.6248 24.8966 14.75 24.8712 14.7223C24.8339 14.6807 24.8813 14.5852 24.8568 14.5532C24.7561 14.4169 24.585 14.3767 24.4769 14.2571C24.4358 14.2119 24.5234 14.1493 24.4743 14.0953C24.4252 14.0414 24.2948 14.11 24.2687 13.9936C24.2493 13.9054 24.389 13.647 24.3395 13.5553C24.1453 13.7576 24.0997 13.7071 23.9611 13.6789C23.9344 13.6736 23.8859 13.7619 23.8698 13.763C23.8029 13.7693 23.8279 13.682 23.7596 13.6931C23.7431 13.6957 23.6774 13.7653 23.6602 13.7714C23.5116 13.8255 23.5724 13.5876 23.5832 13.5463C23.6237 13.3892 23.5121 13.4555 23.5069 13.3738C23.5017 13.2922 23.6146 13.3017 23.587 13.2294C23.5298 13.0796 23.3841 12.9646 23.2802 12.8615C23.2383 12.8208 23.1802 12.9414 23.1722 12.9378C23.0618 12.8791 23.0655 12.6964 22.8428 12.8368C23.2311 12.2986 22.746 12.8337 22.7099 12.6197C22.7073 12.6026 22.9072 12.3633 22.9765 12.3655C23.0458 12.3678 23.0372 12.4929 23.1387 12.4903C23.1626 12.4897 23.4335 12.3436 23.4554 12.3399C23.6263 12.3106 23.3196 12.6607 23.3062 12.6831C23.164 12.9276 23.4662 12.7799 23.5041 12.7856C23.6777 12.8116 23.7227 12.9432 23.8595 12.9738C23.9487 12.9943 24.1624 12.7769 24.2014 12.8261C24.3311 12.9895 24.0935 13.3493 24.4873 13.2128C24.5714 13.1838 24.7685 12.9122 24.6989 13.2056C24.6945 13.224 24.612 13.4748 24.7623 13.4079C24.7812 13.3994 24.8473 13.3283 24.8607 13.3296C24.9487 13.3396 24.9305 13.4285 25.0125 13.4544C25.0944 13.4802 25.2002 13.5035 25.2424 13.588C25.2679 13.6388 25.1944 13.8177 25.1829 13.8674C25.1484 14.0099 25.3477 13.9098 25.2749 14.0532C25.2018 14.1973 24.9765 14.3095 24.9944 14.4634C25.1697 14.2821 25.3538 14.0998 25.5321 13.9193C25.7151 14.1025 25.8455 14.3359 26.0429 14.5051C26.0675 14.5259 26.136 14.4043 26.1648 14.4241C26.2859 14.5077 26.3128 14.6652 26.4494 14.7401C26.5555 14.7978 26.7472 14.7804 26.8612 14.8374C26.7187 15.0992 26.9181 15.1515 26.9964 15.2607C27.0239 15.2989 26.969 15.3531 26.9758 15.3939C27.0028 15.5463 27.1345 15.3204 27.1867 15.3142C27.4101 15.2885 27.0251 15.7188 27.1603 15.8256C27.1674 15.8314 27.4587 15.6825 27.4829 15.6789C27.6393 15.6541 27.4216 15.7682 27.4506 15.8264C27.5035 15.9326 27.5097 16.0391 27.6666 16.0623C27.7126 16.0688 27.9102 15.9909 27.8629 16.1498C27.8568 16.1706 27.7834 16.2412 27.7851 16.2509C27.8207 16.4201 28.0416 16.1892 28.1746 16.1653C28.3076 16.1415 28.2484 16.388 28.2235 16.4519C28.1599 16.6175 28.1383 16.4684 28.1246 16.4777C27.9626 16.5892 28.0518 16.6273 28.0916 16.6867C27.885 16.9225 27.9691 16.9752 28.1337 16.7473C28.1516 16.7223 28.092 16.7067 28.0916 16.6867C28.3461 16.5038 28.4512 16.5481 28.3415 16.8387C28.29 16.9749 28.1446 17.0539 28.3067 17.1267C28.3801 17.1598 28.5059 16.9821 28.5952 16.9851C28.7992 16.992 28.8079 17.2756 28.9454 17.3607C28.9953 17.3915 29.035 17.267 29.0719 17.2851C29.1701 17.333 29.1768 17.4606 29.2844 17.499C29.2943 17.5024 29.3617 17.3962 29.3866 17.4173C29.577 17.5755 29.6802 17.7803 29.8673 17.9581C29.9577 18.044 30.1671 18.1464 30.2522 18.2446C30.3474 18.3538 30.4138 18.5251 30.4944 18.6596L31.1325 19.3473L30.4944 19.8635C30.4171 19.9029 30.3509 19.9473 30.3117 20.0052C30.2397 20.1107 30.3441 20.1824 30.3625 20.2804C30.3987 20.4702 30.0656 20.3811 30.0167 20.3648C30.0151 20.3642 30.0736 20.2696 29.9885 20.2623C29.8738 20.1884 30.0172 20.3635 30.0167 20.3648C29.9849 20.3544 29.8091 20.4803 29.7941 20.5266C29.786 20.5518 29.8755 20.6286 29.8697 20.6401C29.7318 20.9125 29.5423 21.1303 29.2924 21.2888C29.2871 21.2906 29.2032 21.1896 29.1917 21.1949C29.029 21.2673 29.0596 21.458 29.0232 21.6223C28.9867 21.7866 28.8845 21.8385 28.6709 21.7302C28.6137 21.8224 28.436 21.8524 28.3316 21.8673C28.2272 21.8823 28.3925 22.0769 28.3904 22.0858C28.3272 22.3657 28.1273 22.3527 27.9318 22.5042C27.8386 22.5759 27.6942 22.7614 27.6207 22.8683C27.5628 22.9531 27.4779 22.9506 27.4366 23.0416C27.4309 23.0538 27.5177 23.1282 27.5179 23.134C27.5354 23.3036 27.382 23.067 27.3326 23.0452C27.1532 22.9661 27.0528 22.9285 27.0143 23.0805C27.0054 23.1155 27.2135 23.4681 27.189 23.523C27.1565 23.5939 27.0786 23.4706 27.0471 23.5476C27.0443 23.554 27.1057 23.6177 27.069 23.6467C26.8994 23.782 26.6919 23.9054 26.5337 24.0653C26.5119 24.0869 26.6364 24.1625 26.6064 24.1954C26.4656 24.3497 26.2954 24.5016 26.1024 24.5921C26.0546 24.6141 26.0104 24.521 25.9826 24.5071C25.8136 24.4236 25.9196 24.6753 25.9116 24.6895C25.7243 25.033 25.3584 25.0575 25.1572 25.3966C25.1466 25.4154 25.2183 25.7244 25.0057 25.6005C24.9915 25.5924 24.7758 25.464 24.8431 25.6267C24.8473 25.6368 24.9639 25.6977 24.8997 25.7405C24.8354 25.7832 24.8025 25.9274 24.633 25.8992C24.5794 25.8904 24.3581 25.7682 24.4167 25.9757C24.4212 25.9898 24.6056 26.4107 24.3617 26.2293C24.3216 26.1994 24.1123 25.9619 24.1369 26.1609C24.1419 26.1993 24.22 26.2229 24.2067 26.2957C24.1866 26.4074 24.0407 26.4277 24.0553 26.6071C24.0581 26.6386 24.1441 26.8522 23.9841 26.7786C23.9591 26.767 23.9014 26.6763 23.8677 26.6917C23.7068 26.7644 23.6271 26.9355 23.4532 26.998C23.3917 27.0203 23.2976 26.8745 23.2205 26.8838C23.1435 26.8932 23.0212 26.9473 23.0265 27.0491C23.0319 27.1509 23.2701 27.3009 23.2132 27.3839C23.2058 27.3945 23.1984 27.405 23.1908 27.4154L22.1334 28.2706L21.3398 27.4154C20.984 27.1891 20.787 26.7982 20.4999 26.499C20.4561 26.4532 20.4279 26.5602 20.3585 26.4979C20.1023 26.2685 19.6063 25.93 19.5296 25.5751C19.4681 25.2908 19.7741 25.4039 19.6867 25.23C19.6442 25.1463 19.3585 25.3124 19.3362 25.3052C19.1152 25.2372 19.1054 25.0362 18.9393 24.9399C18.905 24.92 18.8451 25.0396 18.8168 25.0217C18.7196 24.9613 18.6724 24.8388 18.5869 24.7732C18.5483 24.744 18.4879 24.8216 18.4607 24.7859C18.3948 24.7011 18.3544 24.607 18.3416 24.4694C18.3404 24.4568 18.47 24.4112 18.4158 24.3543C18.3279 24.2625 18.2746 24.0888 18.104 24.0574C18.0531 24.0484 17.899 24.2109 17.9366 24.0343C17.9443 23.9974 18.1461 23.8179 17.9082 23.9136C17.8685 23.9293 17.5214 24.0339 17.594 23.8252C17.613 23.7703 17.7192 23.5684 17.6575 23.5581C17.6486 23.5573 17.5872 23.6645 17.5476 23.6436C17.4097 23.5684 17.3019 23.4501 17.1619 23.3709C17.1244 23.35 17.0849 23.4833 17.0317 23.4492C16.8852 23.3553 16.7507 23.1863 16.655 23.0437C16.6199 22.9909 16.7215 22.9447 16.7259 22.9334C16.7977 22.7508 16.5984 22.9016 16.571 22.8958C16.4035 22.8569 16.3996 22.6949 16.2783 22.6235C16.2451 22.6036 16.1845 22.7077 16.1719 22.7102C16.0448 22.7316 16.2314 22.6173 16.2111 22.5665C16.1547 22.4236 16.0352 22.325 15.9224 22.2401C15.8809 22.2091 15.8303 22.3481 15.7941 22.3191C15.578 22.1494 15.379 21.9456 15.235 21.7083C15.2081 21.6635 15.3028 21.6085 15.3115 21.5838C15.3731 21.4121 15.1397 21.5068 15.107 21.506C14.9582 21.503 14.99 21.4059 14.9067 21.3517C14.4986 21.0884 14.1093 20.6406 13.8055 20.3048C13.7752 20.2714 13.7457 20.2383 13.7168 20.2054L12.7162 19.127L13.7168 18.3177C14.1359 17.9964 14.506 17.7645 14.868 17.3935C14.893 17.3681 14.7715 17.2907 14.7918 17.2675C15.0586 16.9721 15.3811 16.7454 15.644 16.4447C15.6657 16.4202 15.5411 16.3556 15.573 16.3131C15.6377 16.2251 15.742 16.1375 15.8501 16.0942C15.9027 16.0729 15.9283 16.2043 15.9796 16.1812C16.0993 16.1276 16.2029 16.0437 16.2816 15.9411C16.3149 15.8973 16.1627 15.8544 16.2132 15.8051C16.5549 15.4674 16.8837 15.1284 17.3579 14.925C17.3904 14.9111 17.5994 15.092 17.6151 15.0052C17.5669 14.9458 17.5054 14.8805 17.4515 14.8193C17.9323 14.3099 18.503 13.9071 19.0253 13.4392C19.0473 13.4195 18.9106 13.3479 18.9527 13.3091C19.1962 13.0846 19.4036 12.8355 19.75 12.71C19.7842 12.6974 19.9466 12.8964 19.9925 12.8004C20.0004 12.7833 20.0861 12.6565 20.0763 12.5895C20.0744 12.5798 19.9729 12.511 20.0057 12.4756C20.1974 12.2716 20.43 12.0917 20.6837 11.9547C20.7248 11.9327 20.7767 12.0585 20.8067 12.0437C21.0191 11.9378 21.1337 11.6982 21.3714 11.6343C21.5309 11.5919 21.6418 11.7895 21.8463 11.8951C21.8751 11.91 21.9443 11.852 22.0337 11.941C22.2589 12.1644 22.464 12.4479 22.7078 12.6826C22.7603 12.7332 22.7949 12.5936 22.8628 12.7708C22.8672 12.7829 22.8432 12.8852 22.8682 12.9435C22.8854 12.9839 22.9926 13.0592 23.0063 13.1186C23.02 13.1781 22.9221 13.1225 22.9273 13.2025C22.9332 13.283 23.0491 13.3743 22.9869 13.4561ZM27.8629 21.9361C27.7208 21.9012 28.0185 22.2371 28.0084 22.0996C28.0076 22.0925 27.87 21.9376 27.8629 21.9361ZM25.6134 14.5822C25.5548 14.7983 25.8058 14.6346 25.8562 14.4725C25.9064 14.3105 25.6311 14.5166 25.6134 14.5822ZM24.7216 13.9467C24.7045 14.1442 25.1529 13.6925 24.9694 13.697C24.9588 13.6971 24.7226 13.9352 24.7216 13.9467ZM21.6265 12.1849C21.6313 12.1885 21.6826 12.1485 21.6797 12.1432C21.6076 12.0155 21.5052 12.0955 21.6265 12.1849ZM23.8272 13.3262C23.7963 13.4152 23.9445 13.4177 23.9829 13.3071C24.0137 13.2181 23.8655 13.2155 23.8272 13.3262ZM24.484 24.4378C24.4785 24.4338 24.4405 24.4611 24.467 24.4881C24.5524 24.5748 24.5761 24.5056 24.484 24.4378ZM22.4845 12.0817C22.6658 12.2839 22.4268 12.7798 22.2521 12.5354C22.2204 12.4912 22.4505 12.4914 22.4332 12.4105C22.4014 12.2626 22.1158 12.4474 22.1439 12.2316C22.1492 12.1923 22.4749 12.0693 22.4853 12.0815C22.485 12.0816 22.4847 12.0816 22.4845 12.0817ZM27.4613 21.5738C27.4561 21.5706 27.4053 21.6103 27.4082 21.6157C27.48 21.7435 27.5824 21.6635 27.4613 21.5738ZM22.3154 26.0844C22.3042 26.0776 22.1871 26.1708 22.1915 26.1826C22.2937 26.4059 22.5308 26.218 22.3154 26.0844ZM29.02 18.8549C28.8709 18.9117 28.7981 18.8668 28.8801 18.6972C28.9245 18.7517 28.9748 18.8006 29.02 18.8549Z" fill="#2B4D50"/>
</g>
<defs>
<filter id="filter0_g_1749_28" x="-0.000390649" y="-0.000390649" width="43.2176" height="57.1355" filterUnits="userSpaceOnUse" color-interpolation-filters="sRGB">
<feFlood flood-opacity="0" result="BackgroundImageFix"/>
<feBlend mode="normal" in="SourceGraphic" in2="BackgroundImageFix" result="shape"/>
<feTurbulence type="fractalNoise" baseFrequency="0.55555558204650879 0.55555558204650879" numOctaves="3" seed="6257" />
<feDisplacementMap in="shape" scale="2.2000000476837158" xChannelSelector="R" yChannelSelector="G" result="displacedImage" width="100%" height="100%" />
<feMerge result="effect1_texture_1749_28">
<feMergeNode in="displacedImage"/>
</feMerge>
</filter>
</defs>
</svg>
