<svg width="62" height="82" viewBox="0 0 62 82" fill="none" xmlns="http://www.w3.org/2000/svg">
<g filter="url(#filter0_g_1749_30)">
<path fill-rule="evenodd" clip-rule="evenodd" d="M31.9042 79.9805L1.9375 27.4499L31.9042 1.98047L59.9375 27.4499L31.9042 79.9805ZM20.7875 27.4499L31.9042 17.1029L43.0208 27.4499L31.9042 37.7968L20.7875 27.4499Z" fill="#A8CDCF"/>
<path d="M28.8239 79.5749C28.2197 78.6472 27.5623 77.3543 27.0998 76.3506C26.9546 76.0362 27.1563 76.1223 27.0612 75.9023C26.8751 75.4722 26.6036 75.1274 26.4288 74.6971C26.3715 74.5542 26.6479 74.6151 26.5836 74.4676C26.2297 73.6602 25.7724 72.9663 25.3711 72.1728C23.3948 68.2641 21.3326 64.4902 19.2216 60.5967C18.5254 59.313 17.8115 57.677 16.9919 56.4084C16.896 56.2604 16.788 56.4429 16.7582 56.4213C16.296 56.0802 16.7056 56.0476 16.5786 55.7252C16.0735 54.446 15.3382 53.1227 14.6272 52.0199C14.3243 51.551 14.2833 52.2178 14.1837 51.6285C14.1764 51.5878 14.4164 51.6137 14.3588 51.4706C14.2278 51.1462 13.8716 50.5923 13.7519 50.3513C13.5222 49.8862 13.478 49.8128 13.2373 49.3863C12.9097 48.8024 12.5996 48.0626 12.2052 47.4606C12.1205 47.3325 12.0468 47.6081 11.896 47.4127C11.7451 47.217 11.4391 46.6462 11.372 46.4331C11.3049 46.2201 11.4879 46.2227 11.5002 46.1712C11.6076 45.744 10.8696 45.3028 10.8127 45.2243C9.78756 43.7864 9.25001 42.3584 8.43222 40.9263C7.81095 39.8393 7.07859 38.7158 6.49776 37.6756C5.80644 36.436 5.30481 35.3373 4.60537 34.1489C4.53176 34.0234 4.41141 34.2884 4.32108 34.1353C3.36162 32.5088 2.45484 30.8673 1.66154 29.1554C1.58216 28.9836 1.88242 29.0921 1.81387 28.9143C1.68268 28.578 1.53945 28.1744 1.3709 27.7731L1.09965 27.3244L1.51505 26.9528C2.32487 26.418 3.10048 25.7616 3.05775 24.9811C3.67582 24.502 4.42206 23.9155 5.07229 23.6013C5.4914 23.3986 5.30399 23.8539 5.66345 23.4221C5.74469 23.3249 5.49305 23.2795 5.62456 23.1452C6.17838 22.5796 6.87619 22.0707 7.40429 21.4879C7.5114 21.369 7.36377 21.2622 7.37738 21.2088C7.49801 20.7675 8.25346 20.6855 8.37799 20.6203C9.32307 20.1205 9.84496 19.5575 10.5895 18.9321C10.7624 18.7871 10.4052 18.7786 10.566 18.6325C11.402 17.8773 12.3041 17.1374 13.2126 16.5037C13.4151 16.3631 13.3744 16.6635 13.4778 16.6043C13.9324 16.3411 13.772 15.9754 14.2032 15.7174C14.2937 15.6627 14.3612 15.8329 14.388 15.835C14.8089 15.8696 14.7321 15.379 14.7845 15.3222C15.4414 14.5963 16.2004 14.5314 16.8743 13.8765C16.9547 13.7978 16.6199 13.7945 16.8544 13.5835C18.4158 12.1769 20.1477 10.784 21.8457 9.57108C22.1095 9.38228 22.0404 9.6573 22.0691 9.65961C22.5273 9.68674 22.4153 9.22372 22.4853 9.14326C23.0443 8.51683 23.8672 8.2855 23.9697 7.53357C26.5327 5.56659 28.8352 3.31403 31.4759 1.47656L31.8964 1.10038L32.3489 1.491C32.5467 1.70903 32.7414 1.93032 32.9325 2.15539C32.9619 2.18915 32.7621 2.29067 32.8212 2.35733C33.5318 3.16179 33.599 2.78307 34.3892 2.96308C34.5881 3.00866 34.6652 3.7282 34.677 3.78647C34.7187 3.99984 34.3753 4.10886 34.4016 4.16674C34.6265 4.63781 35.2612 3.8221 35.7439 4.26019C35.7578 4.27517 35.5669 4.35799 35.5947 4.40873C35.6807 4.56684 35.8561 4.6244 35.9353 4.78456C36.1154 5.15237 35.879 5.61418 36.5054 5.78945C36.5853 5.81094 36.8952 5.3027 37.3074 5.7145C37.4713 5.87902 38.2382 6.56221 38.4258 6.7838C38.6131 7.00512 38.3403 7.01181 38.35 7.03164C38.7558 7.73688 38.469 7.61579 38.5083 8.14971C38.5484 8.68257 39.058 7.96164 39.2409 7.99562C39.4237 8.03 39.7059 8.56401 39.7611 8.71075C39.8163 8.85744 39.607 8.82905 39.6716 8.94239C40.1026 9.69102 40.2313 8.8632 40.5254 8.94249C41.2197 9.12837 41.151 9.94396 41.5411 10.3844C41.6466 10.5035 41.6506 10.3072 41.7642 10.3917C42.2128 10.7279 42.3249 11.1037 42.9199 11.393C43.0172 11.4405 43.6598 11.4965 43.713 11.9321C43.72 11.9944 43.5121 12.0243 43.6638 12.2111C43.8902 12.4904 44.3402 12.9471 44.6594 13.1639C44.895 13.3239 44.8352 12.909 45.0422 13.2091C45.1341 13.3425 44.8127 13.2615 44.9941 13.5026C45.1743 13.7427 45.7368 14.2445 45.9527 14.4333C46.1683 14.6218 46.1884 14.3666 46.2147 14.3721C46.3709 14.4084 46.8432 14.7057 46.879 14.7385C48.7084 16.3672 50.1506 18.1385 51.9915 19.6584C52.1358 19.7779 52.187 19.5361 52.2105 19.5527C52.7448 19.9173 51.9894 19.9977 52.1929 20.4392C52.4363 20.0752 52.5791 20.3109 52.945 20.5792C53.1216 20.7082 53.1467 20.5044 53.173 20.505C53.5829 20.5334 53.5279 20.9279 53.5254 21.0166C53.517 21.3435 53.8858 21.2832 53.8821 21.5035C53.8791 21.7227 53.4679 21.6782 53.7904 21.9669C53.9845 21.9338 54.0191 21.4178 54.3065 21.5901C55.3911 22.24 56.8903 24.0315 57.6059 24.7263C58.32 25.4197 58.5771 25.6147 58.9685 26.046C59.6754 26.8251 59.5935 26.3445 60.1673 26.6799C60.3262 26.7729 60.3853 26.8657 60.3869 26.9552L60.768 27.2842L60.5271 27.7645C60.3009 27.8259 60.0004 27.4985 59.8669 27.5042C59.6833 27.5105 59.7804 27.6762 59.6494 27.7361C59.5186 27.7956 59.5395 27.5268 59.3843 27.7481C59.2289 27.9695 59.1328 28.7502 59.2347 28.9125C59.4507 29.2558 59.9326 29.138 59.4836 29.7036C59.4575 29.736 59.3484 29.5275 59.2574 29.6562C58.5402 30.682 57.9243 31.8165 57.2232 32.8491C57.1265 32.9909 57.0074 32.7544 56.949 32.8358C56.3399 33.6832 56.8358 33.5288 56.9265 34.2198C56.5106 33.8535 56.0719 33.9748 55.6994 34.6659C55.4754 35.0812 55.7215 35.1205 55.7242 35.4679C55.7253 35.5723 55.4254 35.7907 55.4946 35.8963C55.7201 36.2428 56.2258 36.1562 55.7024 36.7943C55.6789 36.822 55.5572 36.6289 55.4889 36.7315C55.0461 37.3943 55.3356 37.6563 54.9724 38.4343C54.6878 39.0442 53.9213 39.9899 53.5279 40.6473C53.0005 40.3476 52.7827 41.0506 53.0135 41.5061C52.7646 41.9362 52.5329 42.4205 52.2559 42.8168C52.1608 42.9532 52.057 42.7748 52.0305 42.7843C51.6175 42.926 51.8747 43.308 51.8383 43.41C51.4281 44.508 50.7105 45.1979 50.4543 46.3179C50.4454 46.3577 50.7869 46.6123 50.3761 46.729C50.3483 46.7359 50.3517 46.3226 50.093 46.7758C49.8343 47.229 49.1721 47.9903 49.0034 48.7211C48.9623 48.8978 49.0553 49.4499 48.6521 49.6379C48.5978 49.6627 48.5156 49.56 48.4241 49.5888C48.131 49.683 48.4497 49.99 48.0083 50.0491C47.5668 50.1081 47.0733 50.4577 46.9496 51.2195C46.945 51.2434 47.1613 51.5548 47.0485 51.7549C46.8681 52.0743 46.561 52.5003 46.3827 52.8391C46.2974 53.0014 46.5375 52.9965 46.5259 53.0264C46.0493 54.169 45.4715 54.8549 44.7783 55.9816C44.6509 56.188 44.5755 56.9361 44.1556 57.2431C43.6952 57.5806 43.0366 56.6299 42.696 57.7886C42.558 58.2556 43.425 59.4027 42.4249 59.8406C41.79 61.3862 40.7609 62.5796 40.1871 64.163C40.1611 64.2341 40.3709 64.6148 40.2835 64.7679C40.1532 64.995 39.9354 65.0415 39.8375 65.2011C39.4237 65.8676 39.2149 66.5682 38.8396 67.2234C38.6974 67.4724 38.5893 67.3011 38.4197 67.598C38.2504 67.8948 38.3476 68.2049 38.0309 68.5605C37.791 68.8288 37.2085 68.9141 36.9413 69.2975C37.3453 69.5331 37.1867 69.8097 37.0289 70.3675C36.9988 70.4748 37.1972 70.4484 37.1904 70.5031C37.1656 70.7275 36.9554 70.8352 36.9422 71.0538C36.9387 71.1068 37.0784 71.184 37.0836 71.2316C37.1324 71.6391 36.5547 71.9593 36.4547 72.0139C36.0734 72.2242 36.1762 72.4724 35.9619 72.6754C35.7479 72.878 35.8416 72.4543 35.6378 72.7156C35.2157 73.2575 34.829 74.0368 34.4989 74.6397C34.3681 74.8808 34.6441 74.816 34.6298 74.8528C34.4104 75.3786 33.9405 75.7778 34.1668 76.255C33.0137 76.0854 34.0997 76.6068 33.5243 77.2186C33.4785 77.2666 32.9825 77.094 33.0308 76.8418C33.079 76.5897 33.3971 76.3381 33.4525 75.9821C33.4659 75.898 33.2541 75.262 33.2578 75.1926C33.2869 74.6492 34.0038 74.9526 34.0537 74.9496C34.5984 74.905 34.4018 74.1609 34.4398 74.0129C34.6132 73.3356 34.9811 72.8778 35.1442 72.3209C35.2516 71.957 34.8207 71.6858 34.9718 71.4358C35.4737 70.6043 36.2582 70.6391 36.1465 69.5436C36.1232 69.309 35.5418 69.2195 36.2575 68.8055C36.3025 68.7795 36.9003 68.5075 36.8193 68.1228C36.809 68.0745 36.6657 67.9994 36.6772 67.949C36.7571 67.6126 36.9758 67.4765 37.0928 67.1261C37.2098 66.7757 37.3348 66.346 37.579 66.0049C37.726 65.7993 38.1433 65.6575 38.2649 65.5864C38.6119 65.3876 38.4754 64.9031 38.8013 64.8391C39.1292 64.7742 39.2811 65.3242 39.6898 64.9133C39.3287 64.6973 38.9703 64.4525 38.613 64.2244C39.1986 63.1584 39.8819 62.1666 40.44 61.0813C40.5089 60.9466 40.2367 60.9767 40.3053 60.8295C40.5958 60.2089 41.0193 59.7575 41.2968 59.1013C41.5108 58.5929 41.5833 57.9489 41.8005 57.4139C42.39 57.3308 42.6472 56.502 42.9775 55.9765C43.093 55.7923 43.1995 55.8656 43.3091 55.7493C43.7197 55.3089 43.2164 55.3493 43.2325 55.1771C43.3029 54.439 44.1792 54.8402 44.5381 54.1171C44.5574 54.079 44.351 53.3766 44.3567 53.298C44.3883 52.7966 44.5498 53.3153 44.718 53.0807C45.0251 52.6523 45.304 52.3896 45.4602 51.778C45.5051 51.5993 45.425 51.0706 45.8065 50.8807C45.8566 50.8556 45.9943 50.9577 46.0203 50.93C46.4796 50.4209 46.0179 50.1547 46.0378 49.7343C46.0578 49.3139 46.6586 48.9688 46.8084 48.9133C47.1974 48.7664 46.7989 49.1798 46.8147 49.2074C47.0034 49.5336 47.1565 49.1298 47.3345 48.8538C47.8175 49.0578 48.0053 48.6392 47.5171 48.5666C47.4634 48.5594 47.3865 48.807 47.3345 48.8538C47.0177 48.3591 47.1967 47.8844 47.8806 47.6196C48.2011 47.4958 48.3161 47.8359 48.6037 47.0938C48.7343 46.7572 48.3519 46.7101 48.4144 46.3848C48.5574 45.6418 49.2956 44.9709 49.5998 44.2885C49.7103 44.0409 49.4126 44.1807 49.482 44.0082C49.6659 43.5503 49.9999 43.2381 50.1651 42.7678C50.1798 42.7251 49.9467 42.7243 50.0165 42.5879C50.5423 41.5519 51.1349 40.7218 51.709 39.6536C51.9864 39.1375 52.3793 38.1598 52.6853 37.635C53.2144 36.725 54.0881 35.7243 54.447 34.8972C54.6818 34.3581 54.4395 34.3745 54.4339 34.0868C54.4219 33.5311 55.2559 33.0038 55.3769 32.9374C55.3808 32.9355 55.1862 33.4033 55.4062 33.2157C55.6743 33.1814 55.3751 32.9429 55.3769 32.9374C55.4556 32.8935 55.9713 32.0266 56.0307 31.8315C56.0629 31.7255 55.862 31.6872 55.8821 31.6336C56.3623 30.3628 56.9539 29.1487 57.6778 27.9861C57.6926 27.9667 57.8682 28.1015 57.9006 28.0547C58.247 27.5615 58.3331 27.1138 58.4268 26.6437L58.786 28.7173C58.6464 28.6508 58.5047 28.5831 58.361 28.5047C57.7715 28.1834 57.4243 27.7962 57.3906 27.2591C56.9946 26.963 56.5834 26.3655 56.3502 26.0178C56.1171 25.6701 55.7892 25.9466 55.7571 25.9288C54.7509 25.378 54.4373 24.7643 53.6065 23.9583C53.2119 23.5746 52.3629 22.8865 51.8908 22.5204C51.5173 22.2316 51.3744 21.9672 51.0105 21.7227C50.9614 21.6895 50.878 21.8695 50.8598 21.8628C50.3493 21.705 50.8326 21.5189 50.8142 21.3905C50.7482 20.9245 50.6901 20.6555 50.1363 20.3433C50.0087 20.2711 49.2524 20.4842 49.0333 20.3378C48.7493 20.1465 49.0045 20.0557 48.703 19.86C48.6774 19.8431 48.583 19.9564 48.4253 19.8043C47.6919 19.0999 46.9293 18.2913 46.1376 17.5919C46.0298 17.4959 46.0096 17.7933 45.8513 17.6575C45.1087 17.0202 44.3209 16.2928 43.6891 15.571C43.5341 15.3928 43.753 15.3706 43.748 15.3004C43.7143 14.8726 43.0989 14.8906 43.0393 14.8475C41.6098 13.826 40.8814 12.642 39.4413 11.5823C39.3624 11.5252 38.503 11.363 38.521 10.8488C38.5217 10.8142 38.5485 10.2956 38.1485 10.3034C38.1236 10.3039 38.1362 10.5948 37.8856 10.3387C37.635 10.0826 37.1161 9.79779 36.905 9.29897C36.838 9.14132 36.8352 8.5973 36.2767 8.52154C36.2393 8.5177 35.223 8.57037 35.3688 8.02944C35.3933 7.94082 35.7801 7.57965 35.1881 7.40715C35.0745 7.37476 35.1376 7.59108 34.8818 7.45788C34.4893 7.25429 34.1652 6.76896 33.6184 6.58958C33.5226 6.55875 32.9932 6.56145 32.9444 6.14997C32.9367 6.08553 33.124 6.0178 33.015 5.89211C32.497 5.29384 31.809 4.82782 31.3005 4.20124C31.1201 3.97956 31.4185 3.86601 31.2518 3.6115C31.1658 3.48027 31.0205 3.29618 30.8567 3.13342L32.913 3.16742C32.7416 3.30044 32.5867 3.45211 32.5137 3.59681C32.3631 3.89562 32.9135 4.02321 32.5851 4.34997C31.1574 5.77037 29.4695 6.85562 27.9167 8.12431C27.6864 8.31244 27.9793 8.2765 27.6475 8.56262C26.4243 9.61808 24.3976 11.5404 23.106 12.1854C22.0712 12.7023 23.012 11.6266 22.2852 12.0968C21.9349 12.3242 21.9351 13.0163 21.8696 13.0937C21.2346 13.8547 20.5661 14.1163 19.9426 14.7403C19.8139 14.8692 20.0881 14.9167 19.977 15.0247C19.5989 15.3947 19.1145 15.6812 18.7415 16.0211C18.5745 16.1739 18.712 16.2713 18.5452 16.3966C18.1474 16.6976 17.7673 16.9306 17.2982 17.1284C17.2554 17.1465 17.3513 16.7984 17.0656 17.0314C16.6035 17.4088 15.9416 17.7732 15.5197 18.3364C15.3949 18.504 15.6305 18.7935 15.1301 18.8806C15.0253 18.899 14.8244 18.4818 14.6866 19.1069C14.663 19.2115 14.3486 20.1641 13.8103 20.1798C13.6684 20.1841 13.2154 20.0879 13.0661 20.2904C13.0467 20.3189 13.2779 20.3855 13.136 20.5318C12.6335 21.0448 12.0486 21.5138 11.5295 22.0374C11.3911 22.1775 11.7481 22.1463 11.5376 22.3501C10.9589 22.9108 10.1598 23.5206 9.51867 23.9803C9.28205 24.1495 9.32345 23.8888 9.29527 23.8882C8.83987 23.8762 8.95291 24.3188 8.88264 24.41C8.44198 24.9726 7.91087 25.1709 7.45218 25.6277C7.32526 25.7534 7.54824 25.8208 7.53253 25.857C7.36281 26.2251 7.34386 25.7799 7.14143 25.9011C6.5736 26.2397 6.02998 26.7224 5.54379 27.1684C5.36539 27.3325 5.71977 27.3291 5.55797 27.4744C4.88659 28.0811 4.17656 28.6812 3.45346 29.2335L3.97077 26.29C4.14348 26.6331 4.30739 26.977 4.4598 27.3192C4.55611 27.5364 4.33062 27.4938 4.32036 27.5564C4.24605 27.9897 4.8235 28.2332 4.91176 28.3147C5.31365 28.6848 5.27962 28.9371 5.53252 29.3222C6.77024 31.202 8.05557 33.6617 9.05123 35.5347C10.3496 37.9749 11.2675 39.9195 12.6105 42.1866C12.6957 42.3309 12.8139 42.069 12.8899 42.1918C13.8621 43.7828 14.6923 45.4216 15.676 47.0103C15.7563 47.1409 15.8383 46.8398 15.9737 47.0457C16.2528 47.4673 16.5591 48.0284 16.7507 48.5063C16.8445 48.7392 16.5149 48.5431 16.6127 48.7756C16.8401 49.3172 17.1362 49.8679 17.4636 50.3707C17.6034 50.5844 17.6086 50.1387 17.7751 50.4252C18.9128 52.3743 20.0447 54.2803 20.9212 56.4059C20.9813 56.5516 20.6513 56.8978 20.8924 57.143C21.0152 57.1017 21.1444 57.0265 21.2679 56.9686C22.9594 59.786 24.4327 62.6892 26.0439 65.5631C26.1118 65.6842 26.2037 65.3554 26.3364 65.5893C27.1045 66.9431 27.9119 68.2226 28.4912 69.7251C28.549 69.874 28.1379 70.0152 28.4247 70.3875C28.4756 70.453 28.8725 71.0338 29.0428 71.1453C29.0672 71.1598 29.1769 70.9499 29.2939 71.1433C29.9708 72.2687 30.613 73.4863 31.1566 74.6851C31.2441 74.8788 30.9481 74.7883 31.0087 74.9271C31.4404 75.9113 32.1566 76.841 32.4952 77.8236C32.7212 78.4816 32.2771 78.4436 32.1434 78.9381C32.1245 79.008 32.3273 79.3796 32.1556 79.5028C31.7245 79.8134 31.1203 79.922 30.6728 80.2742C30.5762 80.3497 30.9706 80.7774 30.5496 80.6311C30.521 80.6205 30.2328 80.3117 30.0963 80.273C30.0016 80.2459 29.8789 80.4621 29.7312 80.3808C29.5836 80.2995 29.6609 80.0735 29.453 79.9176C29.244 79.7625 29.0847 79.974 28.8239 79.5749ZM55.2983 24.4547C55.157 24.0505 54.6131 24.5666 55.0346 24.7079C55.0556 24.7141 55.3059 24.4751 55.2983 24.4547ZM40.3763 62.4382C40.8988 62.1595 40.6295 61.6342 40.2414 61.8204C39.8536 62.0068 40.2175 62.5233 40.3763 62.4382ZM38.1871 67.0518C38.6872 66.667 37.7944 66.0879 37.6936 66.7321C37.6874 66.7694 38.158 67.0743 38.1871 67.0518ZM31.2193 77.5259C31.2133 77.5353 31.3556 77.8044 31.3678 77.8058C31.6544 77.8289 31.3696 77.2909 31.2193 77.5259ZM36.0353 71.6409C36.2463 71.5501 36.3435 71.0162 36.0812 71.129C35.8701 71.2198 35.7726 71.7541 36.0353 71.6409ZM41.3073 10.6652C41.3104 10.6529 41.1557 10.4988 41.1166 10.5484C40.9912 10.7085 41.2544 10.8703 41.3073 10.6652ZM31.9956 79.2366C32.6292 78.134 33.7648 77.8664 33.0259 79.0411C32.8921 79.2538 33.0339 78.433 32.814 78.6773C32.4122 79.1246 32.7149 79.7255 32.1744 80.1123C32.0761 80.1821 31.9577 79.2986 31.9956 79.234C31.9956 79.2349 31.9956 79.2357 31.9956 79.2366ZM55.7418 23.6442C55.7429 23.6318 55.5257 23.4218 55.5138 23.4242C55.2331 23.49 55.6706 23.9131 55.7418 23.6442ZM32.197 1.76338C32.1973 1.75842 32.1803 1.73779 32.1522 1.70744L31.8998 1.48956L31.6653 1.69939C31.5166 1.80515 31.1525 2.10124 31.1486 2.12536C31.1291 2.50758 31.6934 2.15889 31.8282 1.89114L31.9028 1.82446L31.983 1.8937C32.0942 1.93277 32.1845 1.90759 32.197 1.76338ZM53.5079 40.6503C53.5635 41.0534 53.4027 41.4144 53.0145 41.5049C53.1827 41.2236 53.3399 40.9338 53.5079 40.6503ZM33.1666 19.3085C32.9618 19.5881 32.5877 19.8412 32.2743 20.0022C32.1763 20.0529 32.1254 19.9193 32.0537 19.9499C31.9136 20.01 31.86 20.1486 31.7144 20.2003C31.6657 20.2169 31.5655 20.0234 31.5177 20.0444C31.2568 20.1605 31.1063 20.3737 30.8757 20.5274C29.7394 21.2842 28.7162 22.1288 27.6528 22.988C27.3022 23.2715 26.7723 23.5045 26.489 23.8819C26.4561 23.9261 26.6053 24.039 26.6081 24.0571C26.648 24.3375 26.434 24.0286 26.323 24.0644C25.8831 24.2072 25.5302 24.5125 25.2833 24.8395C25.1786 24.979 25.5539 25.1296 25.2875 25.097C25.2692 25.095 25.1678 24.9221 25.1191 24.9389C25.009 24.9773 24.8845 25.1409 24.8134 25.186C24.6756 25.272 24.6577 25.2914 24.5457 25.3926C24.3915 25.5296 24.1457 25.6255 24.014 25.8087C23.9863 25.8482 24.1687 25.9524 24.1368 26.0287C24.1048 26.105 23.9473 26.2285 23.8659 26.2397C23.7844 26.2508 23.698 26.1159 23.6646 26.0976C23.3852 25.9411 23.5041 26.4074 23.4895 26.4353C23.2146 26.9343 22.711 27.0743 22.3396 27.4209C22.0604 27.6822 21.8144 28.0179 21.5411 28.2595V26.6402C21.5433 26.6423 21.5454 26.6444 21.5476 26.6465C21.8582 26.9544 22.0553 27.2864 22.3789 27.5621C22.4129 27.5914 22.5352 27.383 22.577 27.4183C23.0214 27.7945 23.4267 28.2068 23.7421 28.7179C23.7736 28.7693 23.5777 28.8699 23.6008 28.9303C23.7449 29.2969 23.8778 29.979 24.6464 29.4629C24.7986 29.6526 24.9877 29.8783 25.0214 30.1579C25.0433 30.3381 24.791 30.4114 24.9814 30.4571C25.0241 30.4676 25.1221 30.2889 25.1761 30.3156C25.4031 30.4281 25.5535 30.6558 25.7988 30.7448C25.8491 30.7625 25.9599 30.6239 25.9917 30.61C26.2528 30.5003 26.1038 30.9446 26.1136 30.9961C26.1914 31.3843 26.4253 31.4777 26.6406 31.6859C26.6906 31.7343 26.7924 31.5043 26.8463 31.5446C27.1234 31.756 27.3725 32.0157 27.5492 32.3243C27.5881 32.3934 27.3993 32.4943 27.4108 32.5349C27.4634 32.7121 27.7498 32.4561 27.8053 32.6206C27.8173 32.655 27.6859 32.7695 27.6772 32.7874C27.5408 33.0688 27.8878 32.8132 27.9115 32.8225C28.2174 32.9326 28.056 33.3865 28.3101 33.5374C28.3408 33.5551 28.4332 33.3415 28.5104 33.4011C29.0253 33.7976 29.4851 34.308 29.8344 34.8728C29.8889 34.9604 29.7246 35.0326 29.7153 35.0517C29.5738 35.3536 29.912 35.0874 29.9466 35.0977C30.2127 35.1879 30.1448 35.612 30.6174 35.3597C31.1584 36.0561 31.8991 36.5333 32.4178 37.245H31.3906C31.5745 37.1301 31.7717 37.0297 31.9884 36.9505C32.002 36.9451 32.1268 37.1151 32.1533 37.1035C32.474 36.9657 32.206 36.7704 32.0939 36.3308C32.0658 36.2203 32.5153 36.4587 32.5501 36.4744C32.6779 36.5329 32.8494 36.799 32.8797 36.8051C33.1232 36.8482 32.4033 36.1104 32.5501 35.9734C32.5558 35.9703 32.6658 36.1272 32.6909 36.1295C32.7696 36.1372 32.7562 36.0466 32.8382 36.0595C33.027 36.0902 33.3987 36.4283 33.3313 36.093C33.3221 36.0499 32.8985 35.6455 33.0485 35.5436C33.1087 35.5034 33.3334 35.2805 33.4241 35.2478C33.5147 35.2152 33.5985 35.3945 33.6087 35.3962C33.9531 35.416 33.9572 35.5532 34.2959 35.7417C34.6337 35.9292 34.0124 35.3103 33.9815 35.2056C33.9508 35.1009 34.2188 35.1322 34.299 35.1552C34.3791 35.1782 34.4215 35.3024 34.477 35.3059C34.8424 35.3268 34.262 34.9118 34.2284 34.7531C34.148 34.378 34.703 34.7493 34.8782 34.6731C34.9256 34.6525 34.7957 34.5713 34.818 34.5316C34.9078 34.3758 35.1217 34.4537 35.1382 34.1844C35.1409 34.1404 34.9905 33.7467 35.2608 33.8869C35.2995 33.9073 35.3797 34.0539 35.4581 34.0305C35.5753 33.9958 35.7437 33.8873 35.793 33.7675C35.8293 33.679 35.5746 33.5516 35.7111 33.5377C35.7719 33.5317 35.8123 33.7074 35.9176 33.6865C36.0226 33.666 36.1879 33.5028 36.2489 33.4387C36.3097 33.3746 36.1364 33.2593 36.1324 33.2444C36.1107 33.1579 36.1681 32.9711 36.1792 32.9611C36.7146 32.4291 37.4563 32.2048 37.917 31.6218C37.9533 31.5762 37.7798 31.4461 37.7839 31.4376C37.8674 31.2377 38.1401 31.7591 38.3704 31.8042C38.0608 31.5007 38.1738 31.5027 38.2431 31.3732C38.2763 31.3106 38.1354 31.2127 38.1281 31.1959C38.0273 30.9418 38.3021 31.1355 38.361 31.1726C38.5778 31.3091 38.4309 31.0461 38.5765 31.1368C38.7211 31.2265 38.8117 31.4749 38.9071 31.3818C38.8288 31.2429 38.4803 31.0137 38.5097 30.8967C38.62 30.4547 39.3584 30.2017 39.6056 30.0167C39.8524 29.8321 39.9054 29.7437 40.0742 29.6631C40.3794 29.5175 40.088 29.378 40.1409 29.1408C40.1941 28.9032 40.6266 29.5112 40.7561 29.6079C40.8851 29.705 40.7963 29.5641 40.8817 29.604C40.9669 29.644 40.9849 29.775 41.0677 29.7427C41.1506 29.7104 41.1234 29.3493 41.0316 29.2077C40.837 28.9076 40.5105 28.7064 40.7592 28.6524C40.7736 28.6495 40.8763 28.8197 40.9249 28.8012C41.3071 28.6501 41.6045 28.386 41.9745 28.2225C42.0256 28.2002 42.1386 28.3906 42.17 28.3795C42.4975 28.2637 42.1656 28.0742 42.0173 27.6586C42.3561 28.0801 42.6516 28.2559 42.8307 28.0934C42.9386 27.9959 42.7598 27.8406 42.7155 27.655C42.702 27.5991 42.8875 27.6474 42.8257 27.5537C42.624 27.2468 42.2771 27.0162 42.5689 26.9644V27.9354C42.5689 27.9352 42.5689 27.9351 42.5689 27.935C42.5679 27.9304 42.5872 27.9123 42.6118 27.8894V27.0104C42.6396 27.0448 42.6752 27.0888 42.7018 27.1071V27.7927C42.7082 27.7817 42.7107 27.7724 42.7071 27.766C42.5818 27.5421 42.3024 27.7994 42.0778 27.6531C41.9018 27.5384 41.7897 27.1185 41.6427 26.9304C42.0595 26.4899 41.8019 26.4399 41.451 26.6844C41.3507 26.5677 41.2136 26.4724 41.1448 26.3294C41.121 26.2803 41.265 26.1745 41.2733 26.1563C41.404 25.8714 41.0782 26.1239 41.0432 26.113C40.6756 25.9827 40.6722 25.5584 40.217 25.5463C40.2007 25.546 39.8994 25.8409 40.0421 25.5536C40.0522 25.534 40.2653 25.4706 40.1578 25.3503C40.0504 25.23 39.9825 24.8583 39.6862 24.8492C39.6147 24.8468 39.2818 25.0041 39.3836 24.7339C39.3976 24.6974 39.4916 24.6199 39.522 24.5563C39.6181 24.3531 39.3008 24.6394 39.4886 24.3201C39.6764 24.0008 39.739 23.689 39.4043 23.7184C39.3941 23.7189 39.1253 23.9296 39.0771 23.8775C39.0005 23.7941 38.931 23.6334 38.8432 23.5547C38.8011 23.5171 38.6848 23.6951 38.675 23.6912C38.3171 23.5185 38.2466 23.1977 38.0041 22.8613C37.96 22.7993 37.6085 22.8625 37.6568 22.5988C37.7092 22.3098 38.5293 21.6678 38.0957 21.599C37.9213 21.5707 36.896 22.3993 37.1635 21.7244C36.6745 21.4982 36.5636 20.9223 36.0248 20.7475C36.0006 20.7396 35.699 20.9564 35.6627 20.9158C35.6092 20.855 35.6928 20.7003 35.6583 20.6529C35.5167 20.451 35.256 20.4073 35.1012 20.2323C35.0422 20.1662 35.1847 20.0584 35.1144 19.9794C35.044 19.9007 34.8347 20.0225 34.8066 19.8435C34.7859 19.7076 35.0299 19.2875 34.9629 19.1497C34.6405 19.4881 34.5752 19.4141 34.3635 19.3856C34.3226 19.3802 34.2381 19.5238 34.2131 19.5274C34.1087 19.5448 34.1568 19.4054 34.0498 19.4304C34.0239 19.4363 33.9147 19.5527 33.8874 19.5641C33.6514 19.6655 33.7709 19.2863 33.7921 19.2206C33.8715 18.9702 33.6916 19.0864 33.6922 18.9592C33.6928 18.8321 33.8667 18.8343 33.8317 18.7243C33.759 18.4964 33.5454 18.3327 33.3954 18.1831C33.3349 18.1242 33.232 18.3194 33.2199 18.3145C33.0553 18.2351 33.0804 17.9489 32.7204 18.1935C33.3792 17.3078 32.5707 18.1996 32.5376 17.8687C32.5353 17.8423 32.8705 17.4455 32.9777 17.4412C33.0848 17.4369 33.0581 17.6336 33.2157 17.6181C33.2528 17.6146 33.6881 17.3555 33.7224 17.3472C33.9904 17.2822 33.4779 17.8644 33.4547 17.9011C33.2083 18.2995 33.6923 18.0345 33.7505 18.0391C34.0166 18.0603 34.0724 18.2612 34.2811 18.2938C34.417 18.3157 34.7713 17.9516 34.8265 18.0242C35.0101 18.2654 34.6037 18.855 35.2284 18.5971C35.3618 18.5424 35.6961 18.0952 35.557 18.562C35.5482 18.5914 35.3937 18.9931 35.6337 18.8715C35.664 18.8561 35.7739 18.7374 35.7944 18.7379C35.9297 18.7438 35.8922 18.8849 36.0163 18.9162C36.1405 18.9474 36.302 18.972 36.3583 19.0994C36.3925 19.176 36.2596 19.4641 36.2364 19.5433C36.1679 19.77 36.4873 19.5911 36.3592 19.8236C36.2307 20.0574 35.8697 20.2581 35.8809 20.497C36.1719 20.1936 36.4765 19.8877 36.7719 19.5853C37.0361 19.8513 37.2133 20.2019 37.501 20.4444C37.537 20.4742 37.6561 20.2763 37.6986 20.3039C37.8773 20.4212 37.9023 20.6646 38.106 20.7665C38.2643 20.8448 38.5631 20.7961 38.7336 20.8725C38.485 21.2981 38.7884 21.3575 38.8981 21.5196C38.9366 21.5762 38.8458 21.6672 38.8521 21.7302C38.8777 21.9658 39.1058 21.5975 39.1873 21.582C39.5361 21.5166 38.8939 22.2331 39.092 22.385C39.1023 22.3933 39.5694 22.1276 39.6074 22.1193C39.8524 22.0629 39.5029 22.2659 39.5416 22.3537C39.6122 22.514 39.6107 22.6798 39.8512 22.6985C39.9218 22.7035 40.2363 22.5595 40.1461 22.8133C40.1343 22.8466 40.0132 22.9654 40.0147 22.9804C40.052 23.2411 40.4188 22.8549 40.6274 22.8027C40.836 22.7505 40.7179 23.1429 40.6727 23.2455C40.5564 23.5118 40.5389 23.281 40.5167 23.2971C40.2538 23.4897 40.3879 23.5392 40.4433 23.6277C40.0982 24.0199 40.2227 24.093 40.5021 23.7179C40.5324 23.6768 40.4418 23.659 40.4433 23.6277C40.8571 23.313 41.0152 23.3705 40.8143 23.8376C40.72 24.0564 40.4864 24.1963 40.7297 24.2921C40.84 24.3357 41.0537 24.0434 41.1918 24.0381C41.5072 24.026 41.4905 24.4687 41.6945 24.5864C41.7686 24.6291 41.8433 24.4297 41.8985 24.454C42.0455 24.5178 42.0424 24.7167 42.205 24.7647C42.2199 24.7689 42.3357 24.5952 42.3721 24.6254C42.6502 24.8517 42.7884 25.1605 43.0593 25.4177C43.1903 25.5418 43.5039 25.6785 43.6251 25.8226C43.761 25.9829 43.8458 26.2435 43.9562 26.4449L45.0224 27.6145L43.9562 28.4549C43.8408 28.5078 43.7428 28.5699 43.6883 28.656C43.5879 28.8131 43.7573 28.937 43.7963 29.0924C43.8725 29.3934 43.3469 29.2166 43.2695 29.1855C43.267 29.1845 43.3476 29.043 43.2148 29.0221C43.0294 28.8936 43.2701 29.1836 43.2695 29.1855C43.2191 29.1658 42.9601 29.343 42.9418 29.4138C42.932 29.4524 43.0787 29.5825 43.0711 29.5999C42.8863 30.0105 42.6158 30.3301 42.2456 30.55C42.2374 30.5522 42.0968 30.3847 42.0796 30.3918C41.8351 30.4867 41.9029 30.7886 41.8639 31.0416C41.8248 31.2946 41.672 31.3643 41.3295 31.1709C41.2507 31.3087 40.9785 31.3356 40.8184 31.3472C40.6582 31.3589 40.9351 31.682 40.9328 31.6956C40.8646 32.1266 40.5535 32.0837 40.2668 32.2988C40.13 32.4005 39.926 32.6746 39.8234 32.8336C39.7428 32.9598 39.611 32.9464 39.5566 33.0841C39.5492 33.1026 39.6915 33.2287 39.6924 33.2378C39.7376 33.5052 39.4748 33.1176 39.3959 33.0781C39.1095 32.9341 38.95 32.864 38.9065 33.0975C38.8964 33.1512 39.2564 33.7263 39.2242 33.8095C39.1815 33.9168 39.0476 33.7152 39.007 33.832C39.0034 33.8418 39.1052 33.9483 39.0514 33.9895C38.803 34.1822 38.4947 34.352 38.2667 34.5845C38.2351 34.6158 38.436 34.748 38.3931 34.7961C38.1914 35.0217 37.9438 35.2404 37.6544 35.3603C37.5827 35.3893 37.5043 35.2386 37.4597 35.2138C37.189 35.0642 37.38 35.4699 37.3691 35.4912C37.1155 36.0076 36.5511 36.0049 36.2755 36.5128C36.261 36.541 36.405 37.0325 36.0625 36.8149C36.0396 36.8005 35.6917 36.5754 35.8133 36.8376C35.8209 36.8539 36.008 36.9623 35.913 37.0219C35.818 37.0816 35.7824 37.3035 35.5167 37.2403C35.4328 37.2206 35.0768 37.0044 35.1898 37.3357C35.1982 37.3584 35.5287 38.0376 35.1315 37.7264C35.0662 37.6751 34.7167 37.2799 34.776 37.5941C34.7878 37.6547 34.9113 37.7005 34.8985 37.8128C34.8792 37.9854 34.6553 38.0008 34.697 38.283C34.7046 38.3327 34.8606 38.6766 34.6049 38.5434C34.5649 38.5225 34.4659 38.3741 34.4152 38.3943C34.1737 38.49 34.0685 38.7489 33.8056 38.8271C33.7128 38.855 33.5514 38.6164 33.433 38.6223C33.3146 38.6283 33.1309 38.6992 33.15 38.8591C33.1692 39.019 33.5542 39.2804 33.4748 39.4039C33.4646 39.4198 33.4542 39.4353 33.4435 39.4506L31.6518 40.8626L30.3648 39.4506C29.8377 39.1366 29.5739 38.5471 29.161 38.1112C29.0979 38.0445 29.0429 38.2151 28.942 38.1254C28.5695 37.7952 27.8369 37.3213 27.7559 36.7746C27.6909 36.3367 28.1529 36.4793 28.036 36.2169C27.9791 36.0907 27.5187 36.3828 27.4849 36.3739C27.1498 36.2924 27.1559 35.979 26.9088 35.847C26.8578 35.8197 26.7523 36.0136 26.7104 35.9887C26.5662 35.9051 26.5061 35.7189 26.3805 35.6258C26.3239 35.5844 26.222 35.7127 26.1837 35.6598C26.0906 35.5345 26.0381 35.3919 26.0329 35.178C26.0324 35.1585 26.238 35.0724 26.1601 34.9895C26.0336 34.8558 25.9695 34.59 25.7085 34.5601C25.6307 34.5517 25.3746 34.8232 25.4515 34.5427C25.4675 34.484 25.7992 34.1806 25.4205 34.357C25.3573 34.3861 24.8084 34.5886 24.943 34.254C24.9784 34.1659 25.1644 33.8381 25.0699 33.8289C25.0562 33.8287 24.9496 34.0033 24.8905 33.975C24.6847 33.8729 24.5303 33.7 24.3219 33.5917C24.266 33.5631 24.1906 33.7763 24.1117 33.7288C23.8947 33.5984 23.7044 33.3491 23.5714 33.1366C23.5226 33.058 23.6848 32.9743 23.6928 32.9561C23.8235 32.6623 23.4986 32.9207 23.4569 32.9146C23.2014 32.8726 23.2126 32.6196 23.0323 32.5215C22.983 32.4941 22.8781 32.6639 22.8582 32.6692C22.6591 32.7169 22.9603 32.517 22.9343 32.4398C22.862 32.2227 22.6874 32.0817 22.5217 31.9616C22.4607 31.9178 22.3674 32.141 22.3144 32.0997C21.9977 31.8584 21.711 31.5618 21.5132 31.2068C21.4762 31.1397 21.6288 31.0429 21.6449 31.0034C21.7586 30.7277 21.3869 30.9021 21.3364 30.9046C21.1061 30.9166 21.1658 30.7611 21.0425 30.6857C20.4382 30.3195 19.8826 29.6625 19.4477 29.1713C19.4043 29.1224 19.362 29.0739 19.3207 29.0258L17.6488 27.1916L19.3207 25.8739C19.9359 25.4182 20.4846 25.097 21.0061 24.5572C21.0421 24.5202 20.8456 24.3855 20.8747 24.3514C21.2567 23.9193 21.7323 23.6008 22.1075 23.1597C22.1386 23.1239 21.9386 23.0089 21.9835 22.9458C22.0744 22.8154 22.2266 22.6901 22.3896 22.6346C22.4688 22.6072 22.5224 22.8156 22.5995 22.7852C22.7793 22.7148 22.9309 22.5951 23.0419 22.4435C23.0888 22.3787 22.8485 22.2944 22.9214 22.223C23.415 21.733 23.8883 21.2395 24.6013 20.9745C24.6502 20.9564 24.9933 21.263 25.0084 21.1289C24.9274 21.0306 24.8252 20.9214 24.7351 20.8196C25.4259 20.0766 26.2673 19.5104 27.0268 18.837C27.0588 18.8086 26.8393 18.6813 26.9004 18.6254C27.2538 18.3014 27.5487 17.935 28.0721 17.7775C28.1238 17.7616 28.3964 18.0912 28.4574 17.9462C28.4679 17.9203 28.5872 17.7315 28.5649 17.6256C28.5609 17.6102 28.3963 17.4912 28.4432 17.4395C28.7186 17.1418 29.0598 16.8864 29.4383 16.7005C29.4997 16.6708 29.5935 16.8734 29.6384 16.8536C29.9562 16.7118 30.1083 16.3498 30.4699 16.2765C30.7124 16.2281 30.9053 16.5497 31.2333 16.7379C31.2796 16.7644 31.3805 16.6815 31.5286 16.8307C31.9013 17.2057 32.2493 17.6723 32.652 18.0669C32.7386 18.152 32.7774 17.9374 32.9015 18.2224C32.9096 18.2417 32.8832 18.3991 32.9281 18.4932C32.9591 18.5583 33.1333 18.6881 33.1609 18.7827C33.1884 18.8772 33.0307 18.7792 33.0474 18.905C33.065 19.0316 33.2543 19.1876 33.1666 19.3085ZM40.0996 31.4022C39.8757 31.3317 40.3726 31.8907 40.3424 31.6743C40.3404 31.6632 40.1108 31.4054 40.0996 31.4022ZM36.8275 20.6133C36.7137 20.958 37.12 20.6736 37.2153 20.4144C37.3104 20.1553 36.8618 20.5087 36.8275 20.6133ZM35.5133 19.7191C35.4658 20.0301 36.2086 19.273 35.9237 19.3007C35.9074 19.302 35.5161 19.701 35.5133 19.7191ZM30.9236 17.1667C30.9315 17.1728 31.0067 17.1161 31.0016 17.1074C30.8764 16.8995 30.7261 17.0132 30.9236 17.1667ZM34.1935 18.8488C34.1362 18.9915 34.3656 18.9787 34.4368 18.8013C34.4941 18.6586 34.2647 18.6713 34.1935 18.8488ZM35.1305 34.937C35.1215 34.9301 35.0655 34.9685 35.1094 35.0137C35.251 35.1591 35.2804 35.0535 35.1305 34.937ZM32.2455 17.0524C32.5049 17.3483 32.0819 18.1512 31.8371 17.7884C31.7928 17.7227 32.1492 17.6973 32.1311 17.5725C32.0975 17.3447 31.6354 17.6659 31.7019 17.3252C31.7143 17.2631 32.232 17.0341 32.2468 17.0519C32.2464 17.0521 32.2459 17.0522 32.2455 17.0524ZM39.4388 30.7902C39.4304 30.7846 39.3559 30.8411 39.361 30.8498C39.4858 31.0578 39.636 30.9441 39.4388 30.7902ZM31.9456 37.2698C31.9274 37.2579 31.756 37.3905 31.7641 37.4095C31.9461 37.7704 32.2935 37.503 31.9456 37.2698ZM41.651 26.916C41.414 27.0217 41.306 26.9596 41.4511 26.6849C41.5141 26.7653 41.5868 26.8362 41.651 26.916Z" fill="#2B4D50"/>
</g>
<defs>
<filter id="filter0_g_1749_30" x="-0.000390649" y="-0.000390649" width="61.868" height="81.7625" filterUnits="userSpaceOnUse" color-interpolation-filters="sRGB">
<feFlood flood-opacity="0" result="BackgroundImageFix"/>
<feBlend mode="normal" in="SourceGraphic" in2="BackgroundImageFix" result="shape"/>
<feTurbulence type="fractalNoise" baseFrequency="0.55555558204650879 0.55555558204650879" numOctaves="3" seed="6257" />
<feDisplacementMap in="shape" scale="2.2000000476837158" xChannelSelector="R" yChannelSelector="G" result="displacedImage" width="100%" height="100%" />
<feMerge result="effect1_texture_1749_30">
<feMergeNode in="displacedImage"/>
</feMerge>
</filter>
</defs>
</svg>
